<svg width="1930" height="2230" viewBox="0 0 1930 2230" fill="none" xmlns="http://www.w3.org/2000/svg">
<path d="M1889.43 2.40598C1906.98 13.2649 1917.59 20.6822 1926.89 38.7306C1927.53 50.3567 1927.76 62.0044 1927.81 73.6468C1927.88 84.7991 1927.88 84.7991 1927.95 96.1767C1927.96 104.462 1927.98 112.747 1928 121.032C1928.04 129.723 1928.08 138.414 1928.12 147.105C1928.25 175.699 1928.32 204.293 1928.38 232.888C1928.41 242.733 1928.43 252.578 1928.46 262.424C1928.58 308.694 1928.67 354.964 1928.72 401.234C1928.78 454.616 1928.94 507.997 1929.19 561.378C1929.38 602.65 1929.48 643.921 1929.5 685.193C1929.51 709.835 1929.57 734.476 1929.72 759.117C1929.87 782.324 1929.9 805.528 1929.83 828.735C1929.83 837.228 1929.87 845.721 1929.95 854.213C1930.48 908.827 1927.14 945.971 1891.58 989.887C1848.82 1026.79 1875.35 1010.35 1826.17 1038.28C1800.63 1052.84 1707.55 1101.85 1679.45 1123.04C1663.84 1132.12 1639.94 1147.25 1612.47 1164.37C1567.07 1192.66 1576.44 1186.6 1526.49 1228.34C1515.71 1272.63 1518.95 1317.86 1520.88 1362.97C1521.04 1377.55 1521.14 1392.12 1521.18 1406.7C1521.43 1444.92 1522.4 1483.09 1523.55 1521.3C1525.04 1575.17 1525.54 1629.06 1526.15 1682.94C1526.48 1711.6 1527.08 1740.24 1527.9 1768.89C1528.18 1781.99 1528.47 1795.1 1528.75 1808.2C1528.98 1814.08 1529.2 1819.97 1529.44 1826.03C1530.17 1869.49 1520.75 1901.49 1490.64 1934.33C1445.32 1968.25 1396.51 1995.88 1347.24 2024.03C1318.22 2040.67 1289.8 2058.05 1261.59 2075.94C1218.67 2103.15 1175.45 2129.84 1132 2156.25C1103.05 2173.89 1074.5 2192 1046.21 2210.62C1014.83 2230.28 988.387 2232.26 952.237 2228.36C916.598 2220.26 887.22 2200.24 856.555 2181.51C849.161 2177.1 841.758 2172.71 834.349 2168.33C819 2159.25 803.685 2150.11 788.391 2140.94C753.162 2119.89 717.416 2099.68 681.743 2079.34C620.736 2044.37 560.107 2008.83 499.609 1973.04C434.79 1934.72 369.449 1897.31 303.818 1860.31C261.601 1836.47 219.816 1812.1 178.277 1787.16C151.886 1771.39 125.216 1756.08 98.4566 1740.9C54.9018 1715.85 20.5204 1691.26 3.95332 1643.07C3.22539 1627.12 2.84172 1611.32 2.74917 1595.36C2.69811 1590.5 2.64706 1585.65 2.59446 1580.65C2.43952 1564.58 2.33624 1548.51 2.24617 1532.44C2.21293 1526.95 2.17962 1521.46 2.14538 1515.8C1.9786 1486.76 1.85766 1457.72 1.76755 1428.67C1.68419 1404.63 1.51013 1380.59 1.25541 1356.55C0.947823 1327.52 0.792818 1298.49 0.748405 1269.46C0.706456 1258.4 0.611457 1247.34 0.462037 1236.28C0.264789 1220.8 0.264066 1205.33 0.310374 1189.85C0.207951 1185.29 0.105527 1180.73 0 1176.03C0.292391 1152.14 3.06837 1141.65 18.6187 1122.74C45.266 1102.72 71.0364 1100.66 103.846 1104.25C123.454 1112.29 123.454 1112.29 142.867 1123.93C146.516 1126.07 150.165 1128.21 153.924 1130.41C162.014 1135.17 170.076 1139.97 178.114 1144.81C192.086 1153.19 206.163 1161.37 220.274 1169.52C246.884 1184.9 273.432 1200.38 299.962 1215.89C374.731 1259.6 449.623 1303.09 524.876 1346.01C564.42 1368.6 603.79 1391.46 643.137 1414.37C651.814 1419.42 651.814 1419.42 660.666 1424.57C674.846 1432.83 689.025 1441.08 703.204 1449.34C703.181 1445.59 703.158 1441.84 703.134 1437.98C702.583 1346.78 702.169 1255.57 701.91 1164.37C701.781 1120.26 701.606 1076.16 701.32 1032.05C701.071 993.607 700.91 955.163 700.854 916.718C700.822 896.363 700.745 876.01 700.564 855.656C700.383 832.926 700.357 810.202 700.369 787.472C700.279 780.731 700.189 773.99 700.097 767.045C700.35 721.357 700.35 721.357 715 697.918C728.556 686.192 741.978 675.68 757.028 665.803C762.524 662.194 768.02 658.585 773.682 654.866C799.978 638.206 826.607 622.144 853.434 606.303C894.447 581.889 935.246 557.236 975.568 531.762C1011.95 508.787 1048.48 486.091 1085.22 463.653C1128.2 437.391 1171.13 411.034 1213.98 384.571C1219.71 381.038 1225.43 377.506 1231.32 373.866C1248.83 363.057 1266.33 352.247 1283.83 341.436C1373.85 285.831 1463.98 230.403 1554.25 175.196C1568.82 166.287 1583.38 157.375 1597.95 148.461C1602.74 145.53 1607.53 142.598 1612.47 139.578C1639.99 122.728 1667.46 105.807 1694.89 88.8189C1701.03 85.0173 1707.17 81.2157 1713.5 77.2989C1725.39 69.9392 1737.27 62.5711 1749.14 55.1932C1843.64 -3.32421 1843.64 -3.32421 1889.43 2.40598Z" fill="#2AD0AD"/>
<path d="M123.42 1123.64C129.824 1127.43 136.229 1131.23 142.827 1135.14C146.475 1137.25 150.122 1139.37 153.881 1141.55C161.969 1146.24 170.029 1150.99 178.064 1155.77C192.032 1164.04 206.105 1172.13 220.213 1180.19C246.815 1195.38 273.356 1210.68 299.878 1226C325.793 1240.97 351.725 1255.92 377.666 1270.85C382.771 1273.79 387.876 1276.73 393.136 1279.76C432.078 1302.14 471.172 1324.28 510.299 1346.37C554.405 1371.3 598.397 1396.4 642.152 1421.89C646.876 1424.63 651.6 1427.37 656.467 1430.19C689.04 1449.25 689.04 1449.25 703.007 1462.64C704.745 1478.61 704.745 1478.61 704.997 1499.14C705.121 1506.81 705.245 1514.47 705.373 1522.37C705.447 1530.76 705.52 1539.16 705.592 1547.55C705.708 1556.12 705.831 1564.69 705.958 1573.25C706.279 1595.81 706.526 1618.37 706.758 1640.93C707.007 1663.95 707.326 1686.96 707.64 1709.97C708.244 1755.14 708.771 1800.31 709.249 1845.48C710.997 1842.41 712.744 1839.34 714.545 1836.19C722.59 1822.1 730.67 1808.04 738.75 1793.98C741.498 1789.15 744.246 1784.33 747.078 1779.36C770.601 1738.51 796.883 1702.13 827.839 1666.02C830.72 1662.63 833.601 1659.24 836.57 1655.74C974.086 1494.64 1165.66 1403.2 1354.99 1307.94C1363.13 1303.83 1371.27 1299.73 1379.41 1295.62C1383.36 1293.63 1387.31 1291.64 1391.37 1289.58C1427.31 1271.33 1462.44 1251.86 1497.49 1232.1C1514.41 1223.37 1514.41 1223.37 1526.89 1223.37C1527.48 1307.55 1527.92 1391.74 1528.19 1475.93C1528.32 1515.02 1528.49 1554.11 1528.78 1593.2C1529.05 1630.94 1529.2 1668.68 1529.26 1706.42C1529.31 1720.8 1529.4 1735.19 1529.53 1749.58C1529.72 1769.75 1529.74 1789.92 1529.73 1810.1C1529.82 1816.02 1529.91 1821.95 1530 1828.05C1529.73 1871.05 1520.39 1903.33 1490.22 1935.86C1444.92 1969.38 1396.12 1996.67 1346.86 2024.49C1317.85 2040.93 1289.44 2058.1 1261.24 2075.78C1218.33 2102.66 1175.12 2129.04 1131.69 2155.13C1102.74 2172.56 1074.2 2190.45 1045.91 2208.85C1014.55 2228.28 988.111 2230.23 951.97 2226.38C916.342 2218.38 886.971 2198.6 856.316 2180.08C848.923 2175.73 841.523 2171.4 834.115 2167.07C818.771 2158.09 803.46 2149.07 788.171 2140C752.952 2119.2 717.215 2099.23 681.552 2079.14C620.562 2044.59 559.951 2009.47 499.469 1974.11C434.668 1936.25 369.346 1899.28 303.733 1862.72C261.528 1839.16 219.755 1815.09 178.227 1790.45C151.844 1774.86 125.181 1759.74 98.429 1744.74C54.8865 1719.99 20.5147 1695.7 3.95222 1648.08C3.22449 1632.32 2.84092 1616.71 2.7484 1600.94C2.69736 1596.14 2.64632 1591.34 2.59373 1586.4C2.43884 1570.52 2.33559 1554.65 2.24554 1538.77C2.21231 1533.35 2.17908 1527.92 2.14485 1522.33C1.97812 1493.64 1.85714 1464.94 1.76706 1436.24C1.68372 1412.49 1.50971 1388.74 1.25506 1364.98C0.947557 1336.3 0.792668 1307.62 0.748267 1278.93C0.706329 1268 0.611214 1257.08 0.461836 1246.15C0.264644 1230.85 0.263992 1215.57 0.310288 1200.27C0.207893 1195.77 0.105498 1191.26 0 1186.62C0.29231 1163.01 3.06752 1152.65 18.6135 1133.96C50.6782 1110.16 86.9459 1108.86 123.42 1123.64Z" fill="#0CB29F"/>
<g filter="url(#filter0_d_13_134)">
<path d="M704.898 739C723.402 746.069 740.886 753.121 757.99 762.979C762.035 765.297 766.08 767.615 770.248 770.003C774.564 772.508 778.881 775.012 783.328 777.593C787.919 780.234 792.509 782.875 797.238 785.596C812.259 794.251 827.256 802.944 842.249 811.645C849.988 816.133 849.988 816.133 857.884 820.711C889.508 839.058 921.102 857.455 952.681 875.875C973.09 887.776 993.513 899.654 1013.94 911.532C1017.64 913.685 1021.33 915.838 1025.15 918.056C1046.5 930.486 1067.87 942.902 1089.24 955.304C1152.67 992.123 1215.92 1029.2 1279.02 1066.53C1306.8 1082.97 1334.62 1099.33 1362.56 1115.52C1383.83 1127.87 1404.83 1140.54 1425.6 1153.68C1459.16 1174.56 1493.75 1193.15 1529 1211.19C1529 1215.19 1529 1219.18 1529 1223.3C1524.8 1225.49 1520.6 1227.68 1516.28 1229.93C1425.7 1277.13 1335.18 1324.43 1245.02 1372.39C1229.97 1380.36 1214.88 1388.25 1199.77 1396.12C1111.79 1442.26 1024.94 1493.48 948.383 1556.26C943.361 1560.32 938.339 1564.39 933.165 1568.58C835.721 1650.25 771.405 1756.3 711.141 1865C709.081 1865 707.021 1865 704.898 1865C703.507 1812.41 702.38 1759.82 701.386 1707.22C701.307 1703.02 701.227 1698.82 701.146 1694.49C697.323 1487.61 699.38 1280.74 701.386 1073.85C701.426 1069.72 701.466 1065.59 701.507 1061.33C702.548 953.885 703.678 846.442 704.898 739Z" fill="#44DDBC"/>
</g>
<defs>
<filter id="filter0_d_13_134" x="574.192" y="739" width="1079.62" height="1375.62" filterUnits="userSpaceOnUse" color-interpolation-filters="sRGB">
<feFlood flood-opacity="0" result="BackgroundImageFix"/>
<feColorMatrix in="SourceAlpha" type="matrix" values="0 0 0 0 0 0 0 0 0 0 0 0 0 0 0 0 0 0 127 0" result="hardAlpha"/>
<feOffset dy="124.808"/>
<feGaussianBlur stdDeviation="62.404"/>
<feComposite in2="hardAlpha" operator="out"/>
<feColorMatrix type="matrix" values="0 0 0 0 0 0 0 0 0 0 0 0 0 0 0 0 0 0 0.54 0"/>
<feBlend mode="normal" in2="BackgroundImageFix" result="effect1_dropShadow_13_134"/>
<feBlend mode="normal" in="SourceGraphic" in2="effect1_dropShadow_13_134" result="shape"/>
</filter>
</defs>
</svg>
