<svg width="5990" height="2230" viewBox="0 0 5990 2230" fill="none" xmlns="http://www.w3.org/2000/svg">
<path d="M1941.43 2.40598C1958.98 13.2649 1969.59 20.6822 1978.89 38.7306C1979.53 50.3567 1979.76 62.0044 1979.81 73.6468C1979.88 84.7991 1979.88 84.7991 1979.95 96.1767C1979.96 104.462 1979.98 112.747 1980 121.032C1980.04 129.723 1980.08 138.414 1980.12 147.105C1980.25 175.699 1980.32 204.293 1980.38 232.888C1980.41 242.733 1980.43 252.578 1980.46 262.424C1980.58 308.694 1980.67 354.964 1980.72 401.234C1980.78 454.616 1980.94 507.997 1981.19 561.378C1981.38 602.65 1981.48 643.921 1981.5 685.193C1981.51 709.835 1981.57 734.476 1981.72 759.117C1981.87 782.324 1981.9 805.528 1981.83 828.735C1981.83 837.228 1981.87 845.721 1981.95 854.213C1982.48 908.827 1979.14 945.971 1943.58 989.887C1900.82 1026.79 1927.35 1010.35 1878.17 1038.28C1852.63 1052.84 1759.55 1101.85 1731.45 1123.04C1715.84 1132.12 1691.94 1147.25 1664.47 1164.37C1619.07 1192.66 1628.44 1186.6 1578.49 1228.34C1567.71 1272.63 1570.95 1317.86 1572.88 1362.97C1573.04 1377.55 1573.14 1392.12 1573.18 1406.7C1573.43 1444.92 1574.4 1483.09 1575.55 1521.3C1577.04 1575.17 1577.54 1629.06 1578.15 1682.94C1578.48 1711.6 1579.08 1740.24 1579.9 1768.89C1580.18 1781.99 1580.47 1795.1 1580.75 1808.2C1580.98 1814.08 1581.2 1819.97 1581.44 1826.03C1582.17 1869.49 1572.75 1901.49 1542.64 1934.33C1497.32 1968.25 1448.51 1995.88 1399.24 2024.03C1370.22 2040.67 1341.8 2058.05 1313.59 2075.94C1270.67 2103.15 1227.45 2129.84 1184 2156.25C1155.05 2173.89 1126.5 2192 1098.21 2210.62C1066.83 2230.28 1040.39 2232.26 1004.24 2228.36C968.598 2220.26 939.22 2200.24 908.555 2181.51C901.161 2177.1 893.758 2172.71 886.349 2168.33C871 2159.25 855.685 2150.11 840.391 2140.94C805.162 2119.89 769.416 2099.68 733.743 2079.34C672.736 2044.37 612.107 2008.83 551.609 1973.04C486.79 1934.72 421.449 1897.31 355.818 1860.31C313.601 1836.47 271.816 1812.1 230.277 1787.16C203.886 1771.39 177.216 1756.08 150.457 1740.9C106.902 1715.85 72.5204 1691.26 55.9533 1643.07C55.2254 1627.12 54.8417 1611.32 54.7492 1595.36C54.6981 1590.5 54.6471 1585.65 54.5945 1580.65C54.4395 1564.58 54.3362 1548.51 54.2462 1532.44C54.2129 1526.95 54.1796 1521.46 54.1454 1515.8C53.9786 1486.76 53.8577 1457.72 53.7676 1428.67C53.6842 1404.63 53.5101 1380.59 53.2554 1356.55C52.9478 1327.52 52.7928 1298.49 52.7484 1269.46C52.7065 1258.4 52.6115 1247.34 52.462 1236.28C52.2648 1220.8 52.2641 1205.33 52.3104 1189.85C52.208 1185.29 52.1055 1180.73 52 1176.03C52.2924 1152.14 55.0684 1141.65 70.6187 1122.74C97.266 1102.72 123.036 1100.66 155.846 1104.25C175.454 1112.29 175.454 1112.29 194.867 1123.93C198.516 1126.07 202.165 1128.21 205.924 1130.41C214.014 1135.17 222.076 1139.97 230.114 1144.81C244.086 1153.19 258.163 1161.37 272.274 1169.52C298.884 1184.9 325.432 1200.38 351.962 1215.89C426.731 1259.6 501.623 1303.09 576.876 1346.01C616.42 1368.6 655.79 1391.46 695.137 1414.37C703.814 1419.42 703.814 1419.42 712.666 1424.57C726.846 1432.83 741.025 1441.08 755.204 1449.34C755.181 1445.59 755.158 1441.84 755.134 1437.98C754.583 1346.78 754.169 1255.57 753.91 1164.37C753.781 1120.26 753.606 1076.16 753.32 1032.05C753.071 993.607 752.91 955.163 752.854 916.718C752.822 896.363 752.745 876.01 752.564 855.656C752.383 832.926 752.357 810.202 752.369 787.472C752.279 780.731 752.189 773.99 752.097 767.045C752.35 721.357 752.35 721.357 767 697.918C780.556 686.192 793.978 675.68 809.028 665.803C814.524 662.194 820.02 658.585 825.682 654.866C851.978 638.206 878.607 622.144 905.434 606.303C946.447 581.889 987.246 557.236 1027.57 531.762C1063.95 508.787 1100.48 486.091 1137.22 463.653C1180.2 437.391 1223.13 411.034 1265.98 384.571C1271.71 381.038 1277.43 377.506 1283.32 373.866C1300.83 363.057 1318.33 352.247 1335.83 341.436C1425.85 285.831 1515.98 230.403 1606.25 175.196C1620.82 166.287 1635.38 157.375 1649.95 148.461C1654.74 145.53 1659.53 142.598 1664.47 139.578C1691.99 122.728 1719.46 105.807 1746.89 88.8189C1753.03 85.0173 1759.17 81.2157 1765.5 77.2989C1777.39 69.9392 1789.27 62.5711 1801.14 55.1932C1895.64 -3.32421 1895.64 -3.32421 1941.43 2.40598Z" fill="#2AD0AD"/>
<path d="M175.42 1123.64C181.824 1127.43 188.229 1131.23 194.827 1135.14C198.475 1137.25 202.122 1139.37 205.881 1141.55C213.969 1146.24 222.029 1150.99 230.064 1155.77C244.032 1164.04 258.105 1172.13 272.213 1180.19C298.815 1195.38 325.356 1210.68 351.878 1226C377.793 1240.97 403.725 1255.92 429.666 1270.85C434.771 1273.79 439.876 1276.73 445.136 1279.76C484.078 1302.14 523.172 1324.28 562.299 1346.37C606.405 1371.3 650.397 1396.4 694.152 1421.89C698.876 1424.63 703.6 1427.37 708.467 1430.19C741.04 1449.25 741.04 1449.25 755.007 1462.64C756.745 1478.61 756.745 1478.61 756.997 1499.14C757.121 1506.81 757.245 1514.47 757.373 1522.37C757.447 1530.76 757.52 1539.16 757.592 1547.55C757.708 1556.12 757.831 1564.69 757.958 1573.25C758.279 1595.81 758.526 1618.37 758.758 1640.93C759.007 1663.95 759.326 1686.96 759.64 1709.97C760.244 1755.14 760.771 1800.31 761.249 1845.48C762.997 1842.41 764.744 1839.34 766.545 1836.19C774.59 1822.1 782.67 1808.04 790.75 1793.98C793.498 1789.15 796.246 1784.33 799.078 1779.36C822.601 1738.51 848.883 1702.13 879.839 1666.02C882.72 1662.63 885.601 1659.24 888.57 1655.74C1026.09 1494.64 1217.66 1403.2 1406.99 1307.94C1415.13 1303.83 1423.27 1299.73 1431.41 1295.62C1435.36 1293.63 1439.31 1291.64 1443.37 1289.58C1479.31 1271.33 1514.44 1251.86 1549.49 1232.1C1566.41 1223.37 1566.41 1223.37 1578.89 1223.37C1579.48 1307.55 1579.92 1391.74 1580.19 1475.93C1580.32 1515.02 1580.49 1554.11 1580.78 1593.2C1581.05 1630.94 1581.2 1668.68 1581.26 1706.42C1581.31 1720.8 1581.4 1735.19 1581.53 1749.58C1581.72 1769.75 1581.74 1789.92 1581.73 1810.1C1581.82 1816.02 1581.91 1821.95 1582 1828.05C1581.73 1871.05 1572.39 1903.33 1542.22 1935.86C1496.92 1969.38 1448.12 1996.67 1398.86 2024.49C1369.85 2040.93 1341.44 2058.1 1313.24 2075.78C1270.33 2102.66 1227.12 2129.04 1183.69 2155.13C1154.74 2172.56 1126.2 2190.45 1097.91 2208.85C1066.55 2228.28 1040.11 2230.23 1003.97 2226.38C968.342 2218.38 938.971 2198.6 908.316 2180.08C900.923 2175.73 893.523 2171.4 886.115 2167.07C870.771 2158.09 855.46 2149.07 840.171 2140C804.952 2119.2 769.215 2099.23 733.552 2079.14C672.562 2044.59 611.951 2009.47 551.469 1974.11C486.668 1936.25 421.346 1899.28 355.733 1862.72C313.528 1839.16 271.755 1815.09 230.227 1790.45C203.844 1774.86 177.181 1759.74 150.429 1744.74C106.886 1719.99 72.5147 1695.7 55.9522 1648.08C55.2245 1632.32 54.8409 1616.71 54.7484 1600.94C54.6974 1596.14 54.6463 1591.34 54.5937 1586.4C54.4388 1570.52 54.3356 1554.65 54.2455 1538.77C54.2123 1533.35 54.1791 1527.92 54.1448 1522.33C53.9781 1493.64 53.8571 1464.94 53.7671 1436.24C53.6837 1412.49 53.5097 1388.74 53.2551 1364.98C52.9476 1336.3 52.7927 1307.62 52.7483 1278.93C52.7063 1268 52.6112 1257.08 52.4618 1246.15C52.2646 1230.85 52.264 1215.57 52.3103 1200.27C52.2079 1195.77 52.1055 1191.26 52 1186.62C52.2923 1163.01 55.0675 1152.65 70.6135 1133.96C102.678 1110.16 138.946 1108.86 175.42 1123.64Z" fill="#0CB29F"/>
<g filter="url(#filter0_d_13_143)">
<path d="M756.898 739C775.402 746.069 792.886 753.121 809.99 762.979C814.035 765.297 818.08 767.615 822.248 770.003C826.564 772.508 830.881 775.012 835.328 777.593C839.919 780.234 844.509 782.875 849.238 785.596C864.259 794.251 879.256 802.944 894.249 811.645C901.988 816.133 901.988 816.133 909.884 820.711C941.508 839.058 973.102 857.455 1004.68 875.875C1025.09 887.776 1045.51 899.654 1065.94 911.532C1069.64 913.685 1073.33 915.838 1077.15 918.056C1098.5 930.486 1119.87 942.902 1141.24 955.304C1204.67 992.123 1267.92 1029.2 1331.02 1066.53C1358.8 1082.97 1386.62 1099.33 1414.56 1115.52C1435.83 1127.87 1456.83 1140.54 1477.6 1153.68C1511.16 1174.56 1545.75 1193.15 1581 1211.19C1581 1215.19 1581 1219.18 1581 1223.3C1576.8 1225.49 1572.6 1227.68 1568.28 1229.93C1477.7 1277.13 1387.18 1324.43 1297.02 1372.39C1281.97 1380.36 1266.88 1388.25 1251.77 1396.12C1163.79 1442.26 1076.94 1493.48 1000.38 1556.26C995.361 1560.32 990.339 1564.39 985.165 1568.58C887.721 1650.25 823.405 1756.3 763.141 1865C761.081 1865 759.021 1865 756.898 1865C755.507 1812.41 754.38 1759.82 753.386 1707.22C753.307 1703.02 753.227 1698.82 753.146 1694.49C749.323 1487.61 751.38 1280.74 753.386 1073.85C753.426 1069.72 753.466 1065.59 753.507 1061.33C754.548 953.885 755.678 846.442 756.898 739Z" fill="#44DDBC"/>
</g>
<path d="M2447.72 858.62C2285.04 858.62 2158.05 729.97 2158.05 568.12C2158.05 406.27 2285.04 277.62 2447.72 277.62C2544.83 277.62 2637.79 329.08 2679.29 416.23L2580.52 471.84C2553.13 423.7 2509.97 392.99 2442.74 392.99C2349.78 392.99 2282.55 466.86 2282.55 568.12C2282.55 669.38 2348.95 743.25 2442.74 743.25C2509.97 743.25 2554.79 712.54 2580.52 664.4L2679.29 720.01C2637.79 807.16 2544.83 858.62 2447.72 858.62ZM2808.57 847H2690.71V611.28C2690.71 505.87 2750.47 425.36 2872.48 425.36C2899.04 425.36 2928.09 430.34 2948.84 439.47V554.01C2928.92 542.39 2904.85 536.58 2883.27 536.58C2836.79 536.58 2808.57 566.46 2808.57 615.43V847ZM3139.62 857.79C3020.1 857.79 2936.27 759.85 2936.27 640.33C2936.27 522.47 3032.55 423.7 3158.71 423.7C3287.36 423.7 3381.98 516.66 3381.98 640.33V847H3269.93V798.86C3240.88 835.38 3196.06 857.79 3139.62 857.79ZM3158.71 747.4C3219.3 747.4 3264.12 699.26 3264.12 641.16C3264.12 583.06 3219.3 534.92 3158.71 534.92C3098.12 534.92 3054.13 583.06 3054.13 641.16C3054.13 699.26 3098.12 747.4 3158.71 747.4ZM3592.69 847H3474.83V535.75H3401.79V436.15H3474.83V414.57C3474.83 315.8 3533.76 238.61 3654.11 238.61C3681.5 238.61 3709.72 243.59 3730.47 252.72V361.45C3711.38 349.83 3686.48 344.02 3664.9 344.02C3620.08 344.02 3592.69 366.43 3592.69 412.91V436.15H3723.83V535.75H3592.69V847ZM3953.38 858.62C3834.69 858.62 3775.76 787.24 3775.76 684.32V535.75H3700.23V436.15H3775.76V331.57H3893.62V436.15H4038.87V535.75H3893.62V681C3893.62 726.65 3921.01 753.21 3964.17 753.21C3988.24 753.21 4018.95 745.74 4038.87 733.29V838.7C4018.12 851.98 3982.43 858.62 3953.38 858.62ZM4350.27 602.15L4215.81 288.41H4346.12L4460.66 568.95C4465.64 579.74 4468.13 585.55 4473.11 585.55C4478.09 585.55 4480.58 578.91 4485.56 568.95L4599.27 288.41H4730.41L4594.29 602.15C4580.18 636.18 4558.6 660.25 4533.7 675.19V847H4412.52V676.02C4387.62 661.08 4365.21 637.01 4350.27 602.15ZM4877.72 857.79C4751.56 857.79 4655.28 759.85 4655.28 640.33C4655.28 521.64 4752.39 423.7 4877.72 423.7C5004.71 423.7 5100.99 522.47 5100.99 640.33C5100.99 759.85 5003.88 857.79 4877.72 857.79ZM4877.72 747.4C4938.31 747.4 4983.13 699.26 4983.13 641.16C4983.13 583.06 4938.31 534.92 4877.72 534.92C4817.13 534.92 4773.14 583.06 4773.14 641.16C4773.14 699.26 4817.13 747.4 4877.72 747.4ZM5332.1 744.08C5392.69 744.08 5423.4 690.13 5423.4 626.22V436.15H5541.26V640.33C5541.26 760.68 5469.88 857.79 5332.1 857.79C5195.15 857.79 5123.77 760.68 5123.77 640.33V436.15H5241.63V627.05C5241.63 690.13 5271.51 744.08 5332.1 744.08ZM5703.42 847H5585.56V611.28C5585.56 505.87 5645.32 425.36 5767.33 425.36C5793.89 425.36 5822.94 430.34 5843.69 439.47V554.01C5823.77 542.39 5799.7 536.58 5778.12 536.58C5731.64 536.58 5703.42 566.46 5703.42 615.43V847Z" fill="#363636"/>
<path d="M2355.06 2130.65L2158.3 2132V1224.98H2477.71C2735.12 1224.98 2892.81 1344.93 2892.81 1555.17C2892.81 1773.5 2737.82 1892.1 2488.49 1892.1H2355.06V2130.65ZM2483.1 1406.92H2355.06V1710.16H2483.1C2612.48 1710.16 2690.65 1660.3 2690.65 1555.17C2690.65 1455.44 2612.48 1406.92 2483.1 1406.92ZM3122.04 2132H2930.66V1749.25C2930.66 1578.08 3027.69 1447.36 3225.81 1447.36C3268.94 1447.36 3316.11 1455.44 3349.8 1470.27V1656.25C3317.46 1637.38 3278.37 1627.95 3243.33 1627.95C3167.86 1627.95 3122.04 1676.47 3122.04 1755.98V2132ZM3690.59 2149.52C3485.73 2149.52 3329.4 1990.49 3329.4 1796.42C3329.4 1603.69 3487.08 1444.66 3690.59 1444.66C3896.79 1444.66 4053.12 1605.04 4053.12 1796.42C4053.12 1990.49 3895.44 2149.52 3690.59 2149.52ZM3690.59 1970.27C3788.97 1970.27 3861.75 1892.1 3861.75 1797.76C3861.75 1703.42 3788.97 1625.25 3690.59 1625.25C3592.2 1625.25 3520.77 1703.42 3520.77 1797.76C3520.77 1892.1 3592.2 1970.27 3690.59 1970.27ZM4362.35 2132H4170.98V1626.6H4052.38V1464.88H4170.98V1429.83C4170.98 1269.46 4266.67 1144.12 4462.09 1144.12C4506.56 1144.12 4552.38 1152.2 4586.08 1167.03V1353.01C4555.08 1334.15 4514.65 1324.71 4479.61 1324.71C4406.83 1324.71 4362.35 1361.1 4362.35 1436.57V1464.88H4789.58V2132H4598.21V1626.6H4362.35V2132ZM4901.13 1157.59H5092.51V2132H4901.13V1157.59ZM5528.87 2149.52C5321.32 2149.52 5164.99 2005.31 5164.99 1792.37C5164.99 1599.65 5305.15 1440.62 5511.35 1440.62C5722.95 1440.62 5845.59 1596.95 5845.59 1778.9V1835.5H5349.63C5363.1 1924.45 5431.84 1983.75 5527.53 1983.75C5600.3 1983.75 5660.95 1948.71 5691.95 1886.71L5838.85 1960.84C5780.9 2080.79 5670.39 2149.52 5528.87 2149.52ZM5357.71 1729.03H5655.56C5647.47 1660.3 5590.87 1607.73 5510.01 1607.73C5426.45 1607.73 5371.19 1661.64 5357.71 1729.03Z" fill="#0CB29F"/>
<defs>
<filter id="filter0_d_13_143" x="626.192" y="739" width="1079.62" height="1375.62" filterUnits="userSpaceOnUse" color-interpolation-filters="sRGB">
<feFlood flood-opacity="0" result="BackgroundImageFix"/>
<feColorMatrix in="SourceAlpha" type="matrix" values="0 0 0 0 0 0 0 0 0 0 0 0 0 0 0 0 0 0 127 0" result="hardAlpha"/>
<feOffset dy="124.808"/>
<feGaussianBlur stdDeviation="62.404"/>
<feComposite in2="hardAlpha" operator="out"/>
<feColorMatrix type="matrix" values="0 0 0 0 0 0 0 0 0 0 0 0 0 0 0 0 0 0 0.54 0"/>
<feBlend mode="normal" in2="BackgroundImageFix" result="effect1_dropShadow_13_143"/>
<feBlend mode="normal" in="SourceGraphic" in2="effect1_dropShadow_13_143" result="shape"/>
</filter>
</defs>
</svg>
